<svg id="Layer_1" data-name="Layer 1" xmlns="http://www.w3.org/2000/svg" viewBox="0 0 256 256"><defs><style>.cls-1{fill:#5261f5;}</style></defs><polygon class="cls-1" points="25.48 36.48 50.78 36.48 50.78 23 12 23 12 74.98 25.48 74.98 25.48 36.48"/><polygon class="cls-1" points="205.22 23 205.22 36.48 230.52 36.48 230.52 74.98 244 74.98 244 23 205.22 23"/><polygon class="cls-1" points="230.52 219.52 205.22 219.52 205.22 233 244 233 244 181.02 230.52 181.02 230.52 219.52"/><polygon class="cls-1" points="25.48 181.02 12 181.02 12 233 50.78 233 50.78 219.52 25.48 219.52 25.48 181.02"/><path class="cls-1" d="M89.89,90.43V62.22h-10V54.07h29.15v8.15h-10V90.43Z"/><path class="cls-1" d="M121.7,90.43h-9.21V54.07h9.21Zm13.21-14.18H121.05V67.73h13.86Zm-.66-22.18h9.21V90.43h-9.21Z"/><path class="cls-1" d="M159.08,82.48h17v8H150V54.07H175.5v8H159.08Zm-.65-14.33h15.12v7.69H158.43Z"/><path class="cls-1" d="M95.33,201.93a18.38,18.38,0,0,1-7.16-1.38,16.15,16.15,0,0,1-5.69-3.92,18.26,18.26,0,0,1-3.75-6,22.28,22.28,0,0,1,0-15.22,18.35,18.35,0,0,1,3.77-6,16.71,16.71,0,0,1,5.74-3.92,20.24,20.24,0,0,1,15.51.34,15.64,15.64,0,0,1,6,4.93l-5.86,5.92a11.93,11.93,0,0,0-3.6-3,9.08,9.08,0,0,0-4.31-1,9.8,9.8,0,0,0-3.81.73,8.13,8.13,0,0,0-2.93,2.1,10.06,10.06,0,0,0-1.88,3.28,13.59,13.59,0,0,0,0,8.49,10.05,10.05,0,0,0,1.88,3.3,8.31,8.31,0,0,0,2.91,2.13,9.15,9.15,0,0,0,3.74.75,11,11,0,0,0,4-.75,12.84,12.84,0,0,0,4-2.57l5.16,7.22a20.18,20.18,0,0,1-6.46,3.43A23.41,23.41,0,0,1,95.33,201.93Zm5.54-6V182.24H109v15.07Z"/><path class="cls-1" d="M114.86,201.2V164.84h14.88a17.12,17.12,0,0,1,7.7,1.61,11.65,11.65,0,0,1,5,4.65,14,14,0,0,1,1.77,7.19,13.7,13.7,0,0,1-1.77,7.1,11.66,11.66,0,0,1-5,4.57,17.4,17.4,0,0,1-7.7,1.58H120l4.09-4.31v14Zm9.21-12.88L120,183.59h9.21a5.87,5.87,0,0,0,4.3-1.4,5.24,5.24,0,0,0,1.42-3.9,5.31,5.31,0,0,0-1.42-3.94,5.88,5.88,0,0,0-4.3-1.41H120l4.09-4.72ZM135,201.2,126.91,188h9.81l8.14,13.24Z"/><path class="cls-1" d="M149.27,201.2V164.84h14.88a17.15,17.15,0,0,1,7.7,1.61,11.65,11.65,0,0,1,5,4.65,14,14,0,0,1,1.76,7.19,13.8,13.8,0,0,1-1.76,7.12,11.9,11.9,0,0,1-5,4.65,16.89,16.89,0,0,1-7.7,1.64h-9.76l4.09-4.47v14Zm9.21-12.88-4.09-4.73h9.21a5.87,5.87,0,0,0,4.3-1.4,5.24,5.24,0,0,0,1.42-3.9,5.31,5.31,0,0,0-1.42-3.94,5.88,5.88,0,0,0-4.3-1.41h-9.21l4.09-4.72Z"/><path class="cls-1" d="M79.9,145.26V108.89h9.2V137.1h15.53v8.16Z"/><path class="cls-1" d="M104.68,145.26l14.37-36.37h9.07l14.41,36.37H133L121.7,113.93h3.63l-11.26,31.33Zm7.86-7.07,2.37-7.58h15.9l2.37,7.58Z"/><path class="cls-1" d="M145.13,145.26V108.89h16.65q6.42,0,9.58,2.63a8.5,8.5,0,0,1,3.16,6.88,9,9,0,0,1-1.32,4.91,9.31,9.31,0,0,1-3.72,3.32,12.35,12.35,0,0,1-5.7,1.22l.93-2.49a14.34,14.34,0,0,1,6,1.17,9.11,9.11,0,0,1,4,3.38,9.76,9.76,0,0,1,1.41,5.37,8.75,8.75,0,0,1-3.41,7.35q-3.42,2.63-10,2.63Zm9.12-7.43H162a6,6,0,0,0,3.6-.91,3.76,3.76,0,0,0,0-5.56,6,6,0,0,0-3.6-.91H153.6v-7.12h7a5.72,5.72,0,0,0,3.49-.88,3.13,3.13,0,0,0,1.16-2.65,3,3,0,0,0-1.16-2.62,5.86,5.86,0,0,0-3.49-.86h-6.32Z"/></svg>