<svg id="Layer_1" data-name="Layer 1" xmlns="http://www.w3.org/2000/svg" viewBox="0 0 256 256"><defs><style>.cls-1{fill:#5261f5;}</style></defs><polygon class="cls-1" points="27.75 36.92 52.79 36.92 52.79 23.57 14.4 23.57 14.4 75.02 27.75 75.02 27.75 36.92"/><polygon class="cls-1" points="205.62 36.92 230.66 36.92 230.66 75.02 244 75.02 244 23.57 205.62 23.57 205.62 36.92"/><polygon class="cls-1" points="230.66 218.06 205.62 218.06 205.62 231.4 244 231.4 244 179.95 230.66 179.95 230.66 218.06"/><polygon class="cls-1" points="27.75 179.95 14.4 179.95 14.4 231.4 52.79 231.4 52.79 218.06 27.75 218.06 27.75 179.95"/><path class="cls-1" d="M75.54,179.6,54.67,232.43H68.31L72,222.16h20l3.68,10.27h13.92L88.71,179.6ZM76,211.15,82,194.26l6.07,16.89Z"/><path class="cls-1" d="M150.58,205.22c-.3-.13-.62-.23-.93-.35a12.67,12.67,0,0,0,6.47-11.46,12.36,12.36,0,0,0-4.59-10c-3.07-2.54-7.7-3.82-13.92-3.82H113.43v52.83H139q9.53,0,14.49-3.81a12.69,12.69,0,0,0,5-10.68,14.18,14.18,0,0,0-2.06-7.81A13.28,13.28,0,0,0,150.58,205.22ZM126.67,190.4h9.19a8.48,8.48,0,0,1,5.06,1.24,4.41,4.41,0,0,1,1.69,3.81,4.51,4.51,0,0,1-1.69,3.85,8.26,8.26,0,0,1-5.06,1.28h-9.19Zm16.45,29.92a8.77,8.77,0,0,1-5.24,1.32H126.67V210.92h11.21a8.77,8.77,0,0,1,5.24,1.32,5.45,5.45,0,0,1,0,8.08Z"/><path class="cls-1" d="M67,179.18l-5.81-7.7c-2.16,2.46-4.55,3.7-7.16,3.7a6.06,6.06,0,0,1-2.8-.68,9.18,9.18,0,0,1-2.67-2.26l0-.05.27-.11a24.62,24.62,0,0,0,8.27-5.73,27,27,0,0,0,5.51-8.72,31.29,31.29,0,0,0,0-22A27,27,0,0,0,57.05,127a24.65,24.65,0,0,0-8.27-5.74,26.6,26.6,0,0,0-10.5-2,26.59,26.59,0,0,0-10.47,2A24.79,24.79,0,0,0,19.46,127a26.66,26.66,0,0,0-5.5,8.71,31.54,31.54,0,0,0,0,21.89,26.66,26.66,0,0,0,5.5,8.71,24.95,24.95,0,0,0,13.68,7.35q2.43,2.79,4.49,4.84a31.27,31.27,0,0,0,5.27,4.3,19.21,19.21,0,0,0,5.17,2.3,21.48,21.48,0,0,0,5.67.72A15.67,15.67,0,0,0,67,179.18ZM29.19,157.63a14.6,14.6,0,0,1-2.7-4.79,20.13,20.13,0,0,1,0-12.41,14.76,14.76,0,0,1,2.7-4.76,11.66,11.66,0,0,1,4.05-3,12.49,12.49,0,0,1,10.07,0,11.66,11.66,0,0,1,4,3,14.76,14.76,0,0,1,2.7,4.76,20.13,20.13,0,0,1,0,12.41,14.6,14.6,0,0,1-2.7,4.79,11.56,11.56,0,0,1-4,3.06,12.49,12.49,0,0,1-10.07,0A11.56,11.56,0,0,1,29.19,157.63Z"/><path class="cls-1" d="M85,159h7.3l8.57,14h14.32l-10.22-16.63a16.8,16.8,0,0,0,6.71-6.34,19.91,19.91,0,0,0,2.57-10.3,20.42,20.42,0,0,0-2.57-10.45,16.9,16.9,0,0,0-7.26-6.76,24.82,24.82,0,0,0-11.18-2.34H71.57v52.82H85Zm13.68-25a7.73,7.73,0,0,1,2.06,5.74,7.63,7.63,0,0,1-2.06,5.66q-2.07,2-6.25,2H85V132h7.43Q96.57,132,98.63,134.05Z"/></svg>