<svg id="Layer_1" data-name="Layer 1" xmlns="http://www.w3.org/2000/svg" viewBox="0 0 32 32"><defs><style>.cls-1{fill:#5261f5;}</style></defs><polygon class="cls-1" points="2.96 4.36 6.18 4.36 6.18 2.65 1.25 2.65 1.25 9.26 2.96 9.26 2.96 4.36"/><polygon class="cls-1" points="25.82 2.65 25.82 4.36 29.04 4.36 29.04 9.26 30.75 9.26 30.75 2.65 25.82 2.65"/><polygon class="cls-1" points="29.04 27.64 25.82 27.64 25.82 29.35 30.75 29.35 30.75 22.74 29.04 22.74 29.04 27.64"/><polygon class="cls-1" points="2.96 22.74 1.25 22.74 1.25 29.35 6.18 29.35 6.18 27.64 2.96 27.64 2.96 22.74"/><path class="cls-1" d="M11.15,11.22V7.64H9.88v-1h3.71v1H12.33v3.58Z"/><path class="cls-1" d="M15.2,11.22H14V6.6H15.2Zm1.68-1.8H15.12V8.34h1.76ZM16.8,6.6H18v4.62H16.8Z"/><path class="cls-1" d="M20,10.21h2.17v1H18.79V6.6H22v1H20Zm-.08-1.82h1.92v1H19.87Z"/><path class="cls-1" d="M11.85,25.4a2.46,2.46,0,0,1-.91-.17,2.21,2.21,0,0,1-.73-.5A2.31,2.31,0,0,1,9.74,24a2.68,2.68,0,0,1,0-1.93,2.27,2.27,0,0,1,.47-.76,2,2,0,0,1,.73-.5,2.56,2.56,0,0,1,2,0,2,2,0,0,1,.76.63l-.75.75a1.62,1.62,0,0,0-.45-.39,1.26,1.26,0,0,0-.55-.12,1.3,1.3,0,0,0-.49.09,1,1,0,0,0-.37.27,1.27,1.27,0,0,0-.24.41,1.82,1.82,0,0,0-.08.55,1.78,1.78,0,0,0,.08.53,1.44,1.44,0,0,0,.24.42,1,1,0,0,0,.37.27,1.09,1.09,0,0,0,.48.1,1.32,1.32,0,0,0,.51-.1,1.54,1.54,0,0,0,.5-.33l.65.92a2.49,2.49,0,0,1-.82.44A2.94,2.94,0,0,1,11.85,25.4Zm.7-.76V22.9h1v1.91Z"/><path class="cls-1" d="M14.33,25.31V20.68h1.89a2.12,2.12,0,0,1,1,.21,1.52,1.52,0,0,1,.64.59,1.79,1.79,0,0,1,.22.92,1.77,1.77,0,0,1-.22.9,1.56,1.56,0,0,1-.64.58,2.25,2.25,0,0,1-1,.2H15l.52-.55v1.78Zm1.17-1.64-.52-.6h1.17a.74.74,0,0,0,.55-.18.66.66,0,0,0,.18-.49.69.69,0,0,0-.18-.51.74.74,0,0,0-.55-.18H15l.52-.6Zm1.39,1.64-1-1.69h1.25l1,1.69Z"/><path class="cls-1" d="M18.71,25.31V20.68H20.6a2.15,2.15,0,0,1,1,.21,1.5,1.5,0,0,1,.63.59,1.79,1.79,0,0,1,.23.92,1.77,1.77,0,0,1-.23.9,1.5,1.5,0,0,1-.63.59,2.15,2.15,0,0,1-1,.21H19.36l.52-.57v1.78Zm1.17-1.64-.52-.6h1.17a.73.73,0,0,0,.54-.18.66.66,0,0,0,.18-.49.69.69,0,0,0-.18-.51.73.73,0,0,0-.54-.18H19.36l.52-.6Z"/><path class="cls-1" d="M9.88,18.19V13.57h1.17v3.59h2v1Z"/><path class="cls-1" d="M13,18.19l1.83-4.62H16l1.84,4.62H16.63l-1.43-4h.46l-1.43,4Zm1-.89.31-1h2l.3,1Z"/><path class="cls-1" d="M18.18,18.19V13.57H20.3a1.86,1.86,0,0,1,1.21.33,1.1,1.1,0,0,1,.41.88,1.13,1.13,0,0,1-.17.62,1.25,1.25,0,0,1-.48.43,1.59,1.59,0,0,1-.72.15l.12-.32a1.81,1.81,0,0,1,.76.15,1.2,1.2,0,0,1,.51.43,1.27,1.27,0,0,1,.18.69,1.1,1.1,0,0,1-.44.93,2.07,2.07,0,0,1-1.27.33Zm1.16-.94h1a.76.76,0,0,0,.46-.12.48.48,0,0,0,0-.7.76.76,0,0,0-.46-.12H19.25v-.9h.89a.71.71,0,0,0,.45-.12.39.39,0,0,0,.14-.33.43.43,0,0,0-.14-.34.78.78,0,0,0-.45-.11h-.8Z"/></svg>