<?xml version="1.0" encoding="utf-8"?>
<!-- Generator: Adobe Illustrator 24.2.1, SVG Export Plug-In . SVG Version: 6.00 Build 0)  -->
<svg version="1.1" id="Ebene_1" xmlns="http://www.w3.org/2000/svg" xmlns:xlink="http://www.w3.org/1999/xlink" x="0px" y="0px"
	 width="64px" height="64px" viewBox="0 0 64 64" style="enable-background:new 0 0 64 64;" xml:space="preserve">
<style type="text/css">
	.st0{fill:#007AFF;}
	.st1{fill:#1D1D1F;}
</style>
<g id="surface50609989">
	<path class="st0" d="M41,61c-0.4,0-0.9-0.2-1.1-0.5L26,44.3L12.1,60.5c-0.5,0.6-1.5,0.7-2.1,0.1c-0.7-0.5-0.7-1.5-0.2-2.1l15-17.5
		c0.3-0.4,0.7-0.5,1.2-0.5s0.8,0.2,1.1,0.5l15,17.5c0.6,0.6,0.4,1.6-0.1,2.1C41.7,60.9,41.4,61,41,61z M44.5,54.5
		c-0.4,0-0.9-0.2-1.2-0.6L36,44.5l-0.3,0.4c-0.5,0.7-1.4,0.8-2.1,0.3c-0.7-0.5-0.8-1.4-0.3-2.1l1.5-2c0.3-0.4,0.7-0.6,1.2-0.6
		c0.4,0,0.9,0.2,1.2,0.6l8.5,11c0.5,0.6,0.4,1.6-0.2,2.1C45.1,54.4,44.8,54.5,44.5,54.5z M38,33.5c-3.6,0-6.5-2.9-6.5-6.5
		s2.9-6.5,6.5-6.5s6.5,2.9,6.5,6.5S41.6,33.5,38,33.5z M38,23.5c-1.9,0-3.5,1.6-3.5,3.5s1.6,3.5,3.5,3.5s3.5-1.6,3.5-3.5
		S39.9,23.5,38,23.5z"/>
	<path class="st1" d="M11,46c0.9,0,1.5-0.6,1.5-1.5v-35C12.5,7.6,14.1,6,16,6h25.5v3.5c0,3.6,2.9,6.5,6.5,6.5h3.5v38.5
		c0,1.9-1.6,3.5-3.5,3.5c-0.9,0-1.5,0.6-1.5,1.5S47.1,61,48,61c3.6,0,6.5-2.9,6.5-6.5v-40C54.5,8.1,49.4,3,43,3H16
		c-3.6,0-6.5,2.9-6.5,6.5v35C9.5,45.4,10.1,46,11,46z M51.4,13H48c-1.9,0-3.5-1.6-3.5-3.5V6.1C48,6.8,50.8,9.5,51.4,13z"/>
</g>
</svg>
