<?xml version="1.0" encoding="utf-8"?>
<!-- Generator: Adobe Illustrator 24.2.1, SVG Export Plug-In . SVG Version: 6.00 Build 0)  -->
<svg version="1.1" id="Ebene_1" xmlns="http://www.w3.org/2000/svg" xmlns:xlink="http://www.w3.org/1999/xlink" x="0px" y="0px"
	 width="64px" height="64px" viewBox="0 0 64 64" style="enable-background:new 0 0 64 64;" xml:space="preserve">
<style type="text/css">
	.st0{fill:#007AFF;}
	.st1{fill:#1D1D1F;}
</style>
<g id="surface50618695">
	<path class="st0" d="M56.2,40.6c0,2.2-1.8,4-4.1,4H36.1v1.5c0,2.2-1.8,4-4.1,4h20.2c2.2,0,4.1-1.8,4.1-4V40.6"/>
	<path class="st1" d="M32,51.6H11.8c-3.1,0-5.6-2.5-5.6-5.5V31c0-0.3,0.1-0.6,0.2-0.9l10.9-15.3c1-1.4,2.8-2.4,4.5-2.4
		c1.8,0,3.5,0.9,4.6,2.4l10.9,15.3c0.2,0.2,0.2,0.6,0.2,0.9v15.1C37.6,49.1,35.1,51.6,32,51.6z M9.2,31.5v14.6
		c0,1.4,1.1,2.5,2.6,2.5H32c1.4,0,2.6-1.2,2.6-2.5V31.5L24,16.5c-0.5-0.7-1.2-1.1-2.1-1.1c-0.8,0-1.6,0.4-2.1,1.1L9.2,31.5z"/>
	<path class="st1" d="M52.2,51.6H32.4c-0.8,0-1.5-0.7-1.5-1.5c0-0.9,0.7-1.5,1.5-1.5h19.8c1.4,0,2.6-1.2,2.6-2.5V31.5l-10.6-15
		c-0.5-0.7-1.2-1.1-2.1-1.1c-0.9,0-1.6,0.4-2.1,1.1l-1.2,1.7c-0.5,0.7-1.4,0.9-2.1,0.4s-0.8-1.4-0.3-2.1l1.2-1.7
		c1.1-1.4,2.8-2.4,4.6-2.4s3.5,0.9,4.6,2.4l10.8,15.4c0.2,0.2,0.2,0.6,0.2,0.9v15.1C57.8,49.1,55.2,51.6,52.2,51.6z"/>
	<path class="st1" d="M56.2,32.5H36.1c-0.9,0-1.5-0.6-1.5-1.5s0.6-1.5,1.5-1.5h20.2c0.9,0,1.5,0.6,1.5,1.5S57.1,32.5,56.2,32.5z"/>
	<path class="st1" d="M21.9,17.4c-1.4,0-2.5,1.1-2.5,2.5c0,1.4,1.1,2.5,2.5,2.5c1.4,0,2.5-1.1,2.5-2.5
		C24.4,18.6,23.3,17.4,21.9,17.4z"/>
	<path class="st1" d="M32,26.8c-0.3,0-0.6-0.1-0.9-0.2c-0.7-0.4-0.8-1.4-0.3-2.1l2-2.8c0.3-0.4,0.8-0.7,1.2-0.7H40
		c0.6,0,1.1-0.4,1.1-1c0-0.5-0.5-1-1.1-1h-8.1c-0.9,0-1.5-0.6-1.5-1.5c0-0.8,0.6-1.5,1.5-1.5H40c2.2,0,4.1,1.8,4.1,4
		c0,2.2-1.9,4-4.1,4h-5.2l-1.6,2.2C32.9,26.6,32.4,26.8,32,26.8z"/>
</g>
</svg>
