<?xml version="1.0" encoding="utf-8"?>
<!-- Generator: Adobe Illustrator 24.2.1, SVG Export Plug-In . SVG Version: 6.00 Build 0)  -->
<svg version="1.1" id="Ebene_1" xmlns="http://www.w3.org/2000/svg" xmlns:xlink="http://www.w3.org/1999/xlink" x="0px" y="0px"
	 width="64px" height="64px" viewBox="0 0 64 64" style="enable-background:new 0 0 64 64;" xml:space="preserve">
<style type="text/css">
	.st0{fill:#007AFF;}
	.st1{fill:#1D1D1F;}
</style>
<g id="surface50614174">
	<path class="st0" d="M18.5,54.5c0,1.4,1.1,2.5,2.5,2.5h30.9c2.8,0,5-2.2,5-5H21C19.6,52,18.5,53.1,18.5,54.5z"/>
	<path class="st1" d="M52,58.5H12c-3.6,0-6.5-2.9-6.5-6.5V38c0-0.9,0.6-1.5,1.5-1.5s1.5,0.6,1.5,1.5v14c0,1.9,1.6,3.5,3.5,3.5h40
		c1.9,0,3.5-1.6,3.5-3.5V38c0-0.9,0.6-1.5,1.5-1.5s1.5,0.6,1.5,1.5v14C58.5,55.6,55.6,58.5,52,58.5z"/>
	<path class="st1" d="M32,38.9c-8.9,0-17.8-2.4-25.8-7.1c-0.4-0.3-0.8-0.8-0.8-1.3V22c0-3.6,2.9-6.5,6.5-6.5h40
		c3.6,0,6.5,2.9,6.5,6.5v8.5c0,0.6-0.3,1-0.8,1.3C49.8,36.6,40.9,38.9,32,38.9z M8.5,29.6c14.6,8.4,32.4,8.4,47,0V22
		c0-1.9-1.6-3.5-3.5-3.5H12c-1.9,0-3.5,1.6-3.5,3.5V29.6z M41,13.5c-0.9,0-1.5-0.6-1.5-1.5c0-1.9-1.6-3.5-3.5-3.5h-8
		c-1.9,0-3.5,1.6-3.5,3.5c0,0.9-0.6,1.5-1.5,1.5s-1.5-0.6-1.5-1.5c0-3.6,2.9-6.5,6.5-6.5h8c3.6,0,6.5,2.9,6.5,6.5
		C42.5,12.9,41.9,13.5,41,13.5z"/>
</g>
</svg>
