<svg width="47" height="46" viewBox="0 0 47 46" fill="none" xmlns="http://www.w3.org/2000/svg">
<g clip-path="url(#clip0_430_3439)">
<path d="M23.723 45.4227C36.1067 45.4227 46.1457 35.3837 46.1457 23C46.1457 10.6163 36.1067 0.577301 23.723 0.577301C11.3393 0.577301 1.30029 10.6163 1.30029 23C1.30029 35.3837 11.3393 45.4227 23.723 45.4227Z" fill="#425466" stroke="#425466" stroke-width="1.15462"/>
<g filter="url(#filter0_d_430_3439)">
<path d="M21.4355 28.004L14.3589 28.8107L13.2002 16.7547L33.0515 14.4667L34.2102 26.5373L27.3389 27.322L24.7722 31.5167L21.4355 27.9967V28.004Z" fill="black"/>
</g>
<path d="M21.4355 28.004L14.3589 28.8107L13.2002 16.7547L33.0515 14.4667L34.2102 26.5373L27.3389 27.322L24.7722 31.5167L21.4355 27.9967V28.004Z" fill="white" stroke="white" stroke-width="1.46667"/>
</g>
<defs>
<filter id="filter0_d_430_3439" x="11.7335" y="13.7333" width="23.9431" height="19.9833" filterUnits="userSpaceOnUse" color-interpolation-filters="sRGB">
<feFlood flood-opacity="0" result="BackgroundImageFix"/>
<feColorMatrix in="SourceAlpha" type="matrix" values="0 0 0 0 0 0 0 0 0 0 0 0 0 0 0 0 0 0 127 0" result="hardAlpha"/>
<feOffset dy="0.733333"/>
<feGaussianBlur stdDeviation="0.733333"/>
<feColorMatrix type="matrix" values="0 0 0 0 0 0 0 0 0 0 0 0 0 0 0 0 0 0 0.07 0"/>
<feBlend mode="normal" in2="BackgroundImageFix" result="effect1_dropShadow_430_3439"/>
<feBlend mode="normal" in="SourceGraphic" in2="effect1_dropShadow_430_3439" result="shape"/>
</filter>
<clipPath id="clip0_430_3439">
<rect width="47" height="46" fill="white"/>
</clipPath>
</defs>
</svg>
